<?xml version="1.0" encoding="UTF-8"?><svg id="OBJECTS" xmlns="http://www.w3.org/2000/svg" xmlns:xlink="http://www.w3.org/1999/xlink" viewBox="0 0 160 160"><defs><style>.cls-1{fill:#fdc22e;}.cls-2{fill:#80c73c;}.cls-3{filter:url(#drop-shadow-1);}.cls-4{fill:#a37df3;}.cls-5{fill:#fd0176;}.cls-6{clip-path:url(#clippath);}.cls-7{fill:none;}.cls-8{fill:#02fbf1;}.cls-9{fill:#f8860f;}</style><filter id="drop-shadow-1" filterUnits="userSpaceOnUse"><feOffset dx="2" dy="2"/><feGaussianBlur result="blur" stdDeviation="2"/><feFlood flood-color="#000" flood-opacity=".4"/><feComposite in2="blur" operator="in"/><feComposite in="SourceGraphic"/></filter><clipPath id="clippath"><path class="cls-7" d="M142.25,60.7c0-18.72-15.17-33.9-33.9-33.9-11.86,0-22.29,6.1-28.35,15.32-6.06-9.23-16.49-15.32-28.35-15.32-18.72,0-33.9,15.18-33.9,33.9,0,38.65,62.06,72.61,62.25,72.49,.19,.12,62.25-29.47,62.25-72.49Z"/></clipPath></defs><g class="cls-3"><g class="cls-6"><g><rect class="cls-5" x="3" y="23.5" width="147" height="20"/><rect class="cls-9" x="3" y="43.5" width="147" height="20"/><rect class="cls-1" x="3" y="63.5" width="147" height="20"/><rect class="cls-2" x="3" y="83.5" width="147" height="20"/><rect class="cls-8" x="3" y="103.5" width="147" height="20"/><rect class="cls-4" x="3" y="123.5" width="147" height="20"/></g></g></g></svg>